<?xml version="1.0" encoding="UTF-8"?>
<!DOCTYPE svg PUBLIC "-//W3C//DTD SVG 1.1//EN" "http://www.w3.org/Graphics/SVG/1.1/DTD/svg11.dtd">
<svg xmlns="http://www.w3.org/2000/svg" version="1.1" width="512px" height="512px" style="shape-rendering:geometricPrecision; text-rendering:geometricPrecision; image-rendering:optimizeQuality; fill-rule:evenodd; clip-rule:evenodd" xmlns:xlink="http://www.w3.org/1999/xlink">
<g><path style="opacity:0.999" fill="#d1514e" d="M 232.5,49.5 C 232.062,49.4346 231.728,49.6012 231.5,50C 232.789,51.8022 234.456,52.9688 236.5,53.5C 237.401,54.2905 238.068,55.2905 238.5,56.5C 237.226,57.1894 237.226,58.0228 238.5,59C 241.367,59.8007 244.034,59.6341 246.5,58.5C 258.521,59.0987 270.521,59.0987 282.5,58.5C 289.103,47.3582 298.436,44.5249 310.5,50C 316.286,54.4055 319.286,60.2388 319.5,67.5C 325.046,68.9402 330.38,70.9402 335.5,73.5C 339.129,75.9812 343.129,77.9812 347.5,79.5C 348.107,79.3764 348.44,79.0431 348.5,78.5C 354.383,80.6911 360.217,83.0245 366,85.5C 373.016,79.6851 380.85,78.0185 389.5,80.5C 395.096,83.7637 400.096,87.7637 404.5,92.5C 406.062,96.6569 406.729,100.99 406.5,105.5C 403.219,110.089 404.219,113.422 409.5,115.5C 415.546,120.881 421.879,125.881 428.5,130.5C 428.435,130.938 428.601,131.272 429,131.5C 434.831,128.686 440.497,129.019 446,132.5C 446.399,132.272 446.565,131.938 446.5,131.5C 454.302,136.716 457.135,144.049 455,153.5C 453.71,157.24 451.543,160.407 448.5,163C 453.072,176.216 457.738,189.383 462.5,202.5C 461.903,202.735 461.57,203.235 461.5,204C 462.333,206.5 463.167,209 464,211.5C 466.382,212.554 468.882,213.221 471.5,213.5C 474.223,216.062 476.389,219.062 478,222.5C 478.399,222.272 478.565,221.938 478.5,221.5C 481.471,233.539 476.804,240.872 464.5,243.5C 461.324,241.727 459.657,242.727 459.5,246.5C 454.622,256.057 449.289,265.39 443.5,274.5C 446.417,279.704 447.084,285.038 445.5,290.5C 443.244,294.097 440.577,297.431 437.5,300.5C 435.239,301.617 433.072,302.95 431,304.5C 428.854,311.769 427.02,319.102 425.5,326.5C 424.761,326.369 424.094,326.536 423.5,327C 426.449,329.776 429.116,332.609 431.5,335.5C 433.304,351.196 426.304,358.696 410.5,358C 406.621,356.811 403.121,354.978 400,352.5C 395.846,353.94 391.68,355.274 387.5,356.5C 387.44,355.957 387.107,355.624 386.5,355.5C 383.984,356.33 381.65,357.33 379.5,358.5C 374.059,360.871 368.392,362.871 362.5,364.5C 362.44,363.957 362.107,363.624 361.5,363.5C 358.984,364.33 356.65,365.33 354.5,366.5C 353.945,369.096 352.945,371.429 351.5,373.5C 349.967,375.355 348.3,377.188 346.5,379C 346.728,379.399 347.062,379.565 347.5,379.5C 346.528,380.399 345.862,381.566 345.5,383C 346.641,389.157 347.641,395.324 348.5,401.5C 359.956,405.072 364.123,412.739 361,424.5C 356.519,433.995 349.353,437.328 339.5,434.5C 338.749,433.427 337.749,433.26 336.5,434C 330.932,439.031 326.265,444.197 322.5,449.5C 326.087,463.008 321.087,471.008 307.5,473.5C 304.689,472.525 301.689,471.858 298.5,471.5C 291.848,468.646 288.515,463.48 288.5,456C 289.767,450.467 292.101,445.467 295.5,441C 287.26,410.873 279.26,380.706 271.5,350.5C 261.646,350.246 254.312,345.913 249.5,337.5C 250.292,336.814 249.792,336.481 248,336.5C 244.218,336.947 240.718,337.947 237.5,339.5C 229.017,341.785 220.35,343.785 211.5,345.5C 209.503,348.825 207.503,352.159 205.5,355.5C 204.101,356.89 202.434,357.89 200.5,358.5C 199.038,357.529 197.705,357.862 196.5,359.5C 188.914,359.876 183.247,356.876 179.5,350.5C 179.938,350.565 180.272,350.399 180.5,350C 179.413,347.433 178.413,344.933 177.5,342.5C 177.67,341.178 177.337,340.011 176.5,339C 168.547,333.382 160.88,327.382 153.5,321C 133.903,326.057 124.403,318.557 125,298.5C 120.64,294.968 116.473,291.301 112.5,287.5C 109.695,284.169 106.528,281.169 103,278.5C 102.601,278.728 102.435,279.062 102.5,279.5C 92.0606,271.571 81.7273,263.405 71.5,255C 65.9915,256.373 60.3248,256.707 54.5,256C 47.063,253.399 42.7297,248.233 41.5,240.5C 42.2439,237.64 42.9106,234.64 43.5,231.5C 43.3764,230.893 43.0431,230.56 42.5,230.5C 44.0561,226.108 46.8894,222.775 51,220.5C 51.195,219.181 51.0283,217.847 50.5,216.5C 51.4956,212.446 51.1623,208.446 49.5,204.5C 48.0886,198.699 47.0886,192.699 46.5,186.5C 31.8904,182.561 26.7237,173.227 31,158.5C 37.7595,146.244 47.5928,142.91 60.5,148.5C 61.9397,147.048 63.6064,146.048 65.5,145.5C 69.272,142.906 72.9387,140.073 76.5,137C 76.2716,136.601 75.9382,136.435 75.5,136.5C 76.9448,134.937 78.6115,133.604 80.5,132.5C 82.4783,132.262 84.1449,130.929 85.5,128.5C 95.8254,118.845 106.492,109.512 117.5,100.5C 117.54,94.5939 117.707,88.5939 118,82.5C 122.882,69.1394 132.382,63.6394 146.5,66C 152.844,67.4212 157.677,70.9212 161,76.5C 175.067,71.8666 189.234,67.5333 203.5,63.5C 204.538,52.2958 210.705,46.2958 222,45.5C 225.96,45.9087 229.46,47.2421 232.5,49.5 Z M 220.5,58.5 C 227.622,60.0593 228.956,63.5593 224.5,69C 218.833,70.3277 216.333,68.1611 217,62.5C 217.69,60.6498 218.856,59.3164 220.5,58.5 Z M 297.5,60.5 C 302.414,59.7817 305.414,61.7817 306.5,66.5C 302.782,74.0167 298.615,74.35 294,67.5C 293.576,64.3478 294.743,62.0144 297.5,60.5 Z M 281.5,72.5 C 282.718,76.3828 285.051,79.3828 288.5,81.5C 289.261,82.3909 290.261,83.0576 291.5,83.5C 292.636,89.1824 292.47,94.8491 291,100.5C 288.912,101.308 286.912,102.308 285,103.5C 271.167,93 257.333,82.5 243.5,72C 256.173,71.5557 268.839,71.7224 281.5,72.5 Z M 188.5,110.5 C 186.012,113.466 184.012,116.799 182.5,120.5C 180.303,124.389 177.97,128.222 175.5,132C 173.735,132.64 172.068,132.473 170.5,131.5C 167.923,130.394 166.256,128.394 165.5,125.5C 162.985,119.633 160.318,113.8 157.5,108C 162.229,102.372 164.563,95.872 164.5,88.5C 178.766,84.4667 192.933,80.1334 207,75.5C 200.892,87.0417 194.726,98.7084 188.5,110.5 Z M 130.5,87.5 C 131.353,83.9796 133.353,81.3129 136.5,79.5C 145.195,77.1846 150.195,80.518 151.5,89.5C 150.024,98.2379 145.024,101.405 136.5,99C 131.74,96.6473 129.74,92.814 130.5,87.5 Z M 344.5,90.5 C 345.209,91.404 346.209,91.7373 347.5,91.5C 350.005,93.0114 352.672,94.3447 355.5,95.5C 357.153,95.6596 358.486,96.3263 359.5,97.5C 355.884,97.8993 352.55,98.8993 349.5,100.5C 344.191,101.076 339.191,102.409 334.5,104.5C 330.035,105.033 325.702,106.033 321.5,107.5C 319.254,107.936 317.087,108.603 315,109.5C 312.748,105.785 309.581,103.118 305.5,101.5C 304.699,95.8227 305.032,90.156 306.5,84.5C 309.596,83.2047 312.43,81.538 315,79.5C 324.8,83.3191 334.633,86.9858 344.5,90.5 Z M 231.5,80.5 C 247.078,91.3985 262.411,102.732 277.5,114.5C 276.985,116.225 276.318,117.892 275.5,119.5C 247.007,127.956 218.34,135.456 189.5,142C 188.707,140.915 188.04,139.748 187.5,138.5C 191.447,131.604 195.114,124.604 198.5,117.5C 200.588,115.664 201.921,113.331 202.5,110.5C 208.336,101.5 213.669,92.1669 218.5,82.5C 223.036,82.8498 227.369,82.1831 231.5,80.5 Z M 391.5,96.5 C 395.27,108.085 390.937,113.752 378.5,113.5C 369.272,106.655 369.272,99.8221 378.5,93C 383.585,91.6681 387.919,92.8347 391.5,96.5 Z M 154.5,134.5 C 154.747,136.858 154.081,138.858 152.5,140.5C 149.512,143.481 147.846,147.148 147.5,151.5C 145.735,152.461 143.735,152.795 141.5,152.5C 117.817,154.613 94.1501,156.446 70.5,158C 89.3531,141.646 108.353,125.479 127.5,109.5C 132.868,112.092 138.534,113.592 144.5,114C 147.736,120.971 151.07,127.804 154.5,134.5 Z M 364.5,117.5 C 364.511,119.017 365.177,120.184 366.5,121C 369.836,122.121 371.836,124.287 372.5,127.5C 371.721,136.181 370.721,144.847 369.5,153.5C 366.382,154.559 363.382,155.892 360.5,157.5C 346.362,147.861 332.362,138.028 318.5,128C 317.577,125.959 317.244,123.792 317.5,121.5C 331.653,118.462 345.653,114.795 359.5,110.5C 360.45,113.42 362.116,115.753 364.5,117.5 Z M 295.5,112.5 C 302.994,113.145 305.827,117.145 304,124.5C 299.959,129.313 295.625,129.646 291,125.5C 289.578,122.97 289.245,120.303 290,117.5C 291.73,115.598 293.563,113.931 295.5,112.5 Z M 402.5,125.5 C 404.167,127.833 406.167,129.833 408.5,131.5C 411.771,134.268 414.938,137.268 418,140.5C 417.71,143.413 417.543,146.413 417.5,149.5C 413.71,150.895 410.043,152.562 406.5,154.5C 404.25,155.13 402.25,156.13 400.5,157.5C 397.965,158.349 395.465,159.349 393,160.5C 391.697,160.022 390.531,159.355 389.5,158.5C 387.97,156.654 385.97,155.654 383.5,155.5C 383.502,149.477 383.835,143.477 384.5,137.5C 384.724,133.821 385.058,130.154 385.5,126.5C 387.292,126.634 388.958,126.301 390.5,125.5C 392.855,124.906 395.022,123.906 397,122.5C 399.085,123.124 400.918,124.124 402.5,125.5 Z M 285.5,154.5 C 285.702,156.95 285.369,159.283 284.5,161.5C 284.492,164.545 284.159,167.545 283.5,170.5C 273.943,171.359 266.443,175.693 261,183.5C 238.364,174.789 215.864,165.789 193.5,156.5C 209.281,151.241 225.281,146.575 241.5,142.5C 246.073,141.612 250.406,140.279 254.5,138.5C 263.153,136.335 271.819,134.501 280.5,133C 281.848,135.513 283.848,137.347 286.5,138.5C 287.488,143.916 287.155,149.249 285.5,154.5 Z M 308.5,137.5 C 322.62,147.114 336.62,156.947 350.5,167C 351.574,167.739 352.241,168.739 352.5,170C 351.815,172.795 351.315,175.628 351,178.5C 338.54,181.56 326.04,184.56 313.5,187.5C 309.617,180.117 303.951,174.617 296.5,171C 297.999,161.175 299.499,151.342 301,141.5C 304.005,140.973 306.505,139.64 308.5,137.5 Z M 434.5,141.5 C 440.765,141.363 443.265,144.363 442,150.5C 438.333,154.5 434.667,154.5 431,150.5C 429.98,146.553 431.147,143.553 434.5,141.5 Z M 169.5,144.5 C 178.585,146.338 181.751,151.671 179,160.5C 172.609,167.236 166.609,166.903 161,159.5C 159.227,151.699 162.06,146.699 169.5,144.5 Z M 56.5,171.5 C 54.4194,172.623 52.2527,173.623 50,174.5C 47.7473,173.623 45.5806,172.623 43.5,171.5C 40.9905,164.84 43.1572,160.507 50,158.5C 56.8428,160.507 59.0095,164.84 56.5,171.5 Z M 432.5,205.5 C 430.371,203.05 427.704,201.383 424.5,200.5C 419.125,196.473 413.459,192.807 407.5,189.5C 406.101,188.11 404.434,187.11 402.5,186.5C 397.736,183.09 396.403,178.423 398.5,172.5C 406.5,168.833 414.5,165.167 422.5,161.5C 426.433,165.145 431.1,166.812 436.5,166.5C 441.624,182.539 446.957,198.539 452.5,214.5C 452.192,215.308 451.692,215.975 451,216.5C 445.026,212.433 438.859,208.766 432.5,205.5 Z M 147.5,185.5 C 145.326,188.515 143.659,191.849 142.5,195.5C 137.91,195.293 133.243,195.793 128.5,197C 125.241,198.211 122.408,200.044 120,202.5C 112.028,197.101 103.861,192.101 95.5,187.5C 91.2096,184.015 86.543,181.015 81.5,178.5C 78.3191,176.163 74.9858,173.996 71.5,172C 97.3538,169.304 123.187,166.804 149,164.5C 150.061,167.562 151.894,170.062 154.5,172C 151.503,176.161 149.17,180.661 147.5,185.5 Z M 375.5,166.5 C 383.949,168.73 386.616,174.064 383.5,182.5C 380.878,184.644 377.878,185.977 374.5,186.5C 372.297,186.396 370.297,185.73 368.5,184.5C 362.782,177.966 363.449,172.133 370.5,167C 372.134,166.506 373.801,166.34 375.5,166.5 Z M 243.5,221.5 C 241.059,222.557 238.725,223.89 236.5,225.5C 234.64,224.74 232.973,223.74 231.5,222.5C 224.745,219.542 217.745,218.209 210.5,218.5C 208.82,215.14 207.153,211.807 205.5,208.5C 204.404,205.968 203.071,203.635 201.5,201.5C 199.95,196.07 197.616,191.07 194.5,186.5C 193.105,182.71 191.438,179.043 189.5,175.5C 188.847,174.193 188.18,172.86 187.5,171.5C 187.833,170.5 188.5,169.833 189.5,169.5C 211.5,178.167 233.5,186.833 255.5,195.5C 256.053,200.476 257.053,205.309 258.5,210C 253.071,213.369 248.071,217.202 243.5,221.5 Z M 165.5,177.5 C 169.248,178.379 172.915,178.712 176.5,178.5C 183.833,193.833 191.167,209.167 198.5,224.5C 196.157,227.207 193.823,229.874 191.5,232.5C 186.812,230.82 182.146,229.153 177.5,227.5C 175.299,226.434 172.965,225.767 170.5,225.5C 167.718,224.067 164.718,222.9 161.5,222C 160.663,220.989 160.33,219.822 160.5,218.5C 160.219,212.108 157.886,206.608 153.5,202C 156.3,196.901 158.966,191.734 161.5,186.5C 163.105,183.622 164.439,180.622 165.5,177.5 Z M 63.5,182.5 C 77.2126,191.528 91.2126,200.195 105.5,208.5C 106.899,209.89 108.566,210.89 110.5,211.5C 112.202,213.8 112.868,216.467 112.5,219.5C 100.546,221.724 88.7127,224.39 77,227.5C 74.1883,223.338 70.355,220.505 65.5,219C 62.9254,210.058 61.2587,200.891 60.5,191.5C 58.588,187.454 59.588,184.454 63.5,182.5 Z M 302.5,200.5 C 302.298,206.022 299.964,210.356 295.5,213.5C 287.32,218.164 279.82,217.164 273,210.5C 266.538,198.608 269.371,189.774 281.5,184C 294.193,182.339 301.193,187.839 302.5,200.5 Z M 355.5,197.5 C 353.857,202.74 352.523,208.073 351.5,213.5C 349.898,217.239 348.898,221.239 348.5,225.5C 347.662,225.842 347.328,226.508 347.5,227.5C 346.525,230.067 345.858,232.733 345.5,235.5C 344.008,240.799 342.508,246.132 341,251.5C 339.274,252.576 337.441,252.743 335.5,252C 326.922,241.601 318.589,231.101 310.5,220.5C 309.167,219.167 309.167,217.833 310.5,216.5C 313.971,211.591 315.971,206.091 316.5,200C 328.14,197.305 339.807,194.805 351.5,192.5C 353.042,191.699 354.708,191.366 356.5,191.5C 356.167,193.5 355.833,195.5 355.5,197.5 Z M 397.5,198.5 C 399.216,200.025 401.216,201.025 403.5,201.5C 405.629,203.95 408.296,205.617 411.5,206.5C 413.147,208.326 415.147,209.66 417.5,210.5C 425.978,215.909 434.311,221.576 442.5,227.5C 433.329,230.995 424.329,234.662 415.5,238.5C 413.214,238.595 411.214,239.262 409.5,240.5C 403.053,242.558 396.72,244.891 390.5,247.5C 388.421,247.971 386.421,248.637 384.5,249.5C 382.5,250.167 380.5,250.833 378.5,251.5C 376.25,252.13 374.25,253.13 372.5,254.5C 367.525,255.737 362.691,257.404 358,259.5C 356.5,258 355,256.5 353.5,255C 358.045,239.653 362.045,224.153 365.5,208.5C 366.768,206.095 367.435,203.428 367.5,200.5C 368.222,200.082 368.722,199.416 369,198.5C 376.615,200.563 383.615,199.229 390,194.5C 392.749,195.457 395.249,196.79 397.5,198.5 Z M 137.5,208.5 C 143.365,210.367 146.698,214.367 147.5,220.5C 147.5,220.833 147.5,221.167 147.5,221.5C 147.103,225.565 145.103,228.565 141.5,230.5C 140.833,230.833 140.167,231.167 139.5,231.5C 131.27,232.263 126.604,228.596 125.5,220.5C 125.837,212.974 129.837,208.974 137.5,208.5 Z M 277.5,228.5 C 281.768,229.373 286.102,229.706 290.5,229.5C 293.464,228.505 296.464,228.005 299.5,228C 307.333,237.833 315.167,247.667 323,257.5C 324.289,259.055 324.956,260.721 325,262.5C 299.916,257.183 274.749,252.183 249.5,247.5C 248.5,247.5 247.5,247.5 246.5,247.5C 246.232,244.26 245.566,241.094 244.5,238C 245.315,236.357 246.315,234.857 247.5,233.5C 253.709,230.137 259.543,226.137 265,221.5C 268.655,224.744 272.822,227.078 277.5,228.5 Z M 463.5,223.5 C 467.352,225.885 467.352,228.218 463.5,230.5C 459.543,228.075 459.543,225.742 463.5,223.5 Z M 57.5,231.5 C 62.7134,230.762 65.7134,232.928 66.5,238C 65.4578,243.023 62.4578,244.69 57.5,243C 53.5548,239.169 53.5548,235.336 57.5,231.5 Z M 221.5,232.5 C 225.383,233.718 228.383,236.051 230.5,239.5C 230.833,240.5 231.5,241.167 232.5,241.5C 233.833,245.833 233.833,250.167 232.5,254.5C 226.133,263.957 217.8,266.29 207.5,261.5C 207.167,260.5 206.5,259.833 205.5,259.5C 197.437,245.291 201.271,235.958 217,231.5C 218.44,232.148 219.94,232.481 221.5,232.5 Z M 118.5,236.5 C 120.677,239.754 123.677,241.754 127.5,242.5C 130.152,242.991 131.652,244.658 132,247.5C 132.865,260.749 134.031,273.915 135.5,287C 135,287.5 134.5,288 134,288.5C 119.227,275.881 104.06,263.881 88.5,252.5C 87.4154,250.413 85.7488,249.08 83.5,248.5C 82.1879,246.521 80.5212,244.855 78.5,243.5C 79.2458,242.264 79.5792,240.93 79.5,239.5C 90.7202,237.489 101.887,235.156 113,232.5C 115.029,233.55 116.863,234.884 118.5,236.5 Z M 156.5,234.5 C 159.112,235.371 161.779,236.037 164.5,236.5C 166.936,237.871 169.603,238.871 172.5,239.5C 174.701,240.566 177.035,241.233 179.5,241.5C 182.215,243.072 185.215,244.072 188.5,244.5C 188.09,249.667 188.757,254.667 190.5,259.5C 188.147,261.523 185.814,263.523 183.5,265.5C 180.991,266.921 178.657,268.588 176.5,270.5C 168.994,276.501 161.327,282.334 153.5,288C 151.322,288.165 149.489,287.332 148,285.5C 147.087,271.963 145.92,258.463 144.5,245C 149.034,242.214 153.034,238.714 156.5,234.5 Z M 447.5,240.5 C 446.167,243.5 444.833,246.5 443.5,249.5C 441,252.494 439,255.827 437.5,259.5C 435.399,262.179 433.399,265.012 431.5,268C 424.179,267.428 418.512,270.094 414.5,276C 399.372,274.601 384.372,272.267 369.5,269C 381.384,264.766 393.05,260.266 404.5,255.5C 406.965,255.233 409.299,254.566 411.5,253.5C 423.495,249.168 435.495,244.835 447.5,240.5 Z M 258.5,262.5 C 262.426,263.552 266.426,264.218 270.5,264.5C 276.662,266.067 282.995,267.4 289.5,268.5C 292.096,269.265 294.763,269.599 297.5,269.5C 304.8,271.463 312.3,273.13 320,274.5C 321.871,274.709 323.038,275.709 323.5,277.5C 310.948,287.034 298.448,296.701 286,306.5C 283.293,304.064 280.127,302.564 276.5,302C 271.712,301.709 267.045,301.542 262.5,301.5C 254.805,290.972 247.305,280.305 240,269.5C 239.333,268.5 239.333,267.5 240,266.5C 241.586,264.33 242.92,261.996 244,259.5C 248.768,260.687 253.601,261.687 258.5,262.5 Z M 339.5,265.5 C 344.794,264.624 348.127,266.791 349.5,272C 347.415,278.625 343.415,280.125 337.5,276.5C 334.789,272.28 335.456,268.613 339.5,265.5 Z M 200.5,271.5 C 204.365,275.124 209.032,276.791 214.5,276.5C 216.389,277.742 218.389,277.742 220.5,276.5C 223.206,276.425 225.873,276.092 228.5,275.5C 236.121,287.233 244.121,298.733 252.5,310C 251.164,312.2 249.498,314.033 247.5,315.5C 218.435,310.545 189.435,305.378 160.5,300C 172.833,290.333 185.167,280.667 197.5,271C 198.577,270.53 199.577,270.697 200.5,271.5 Z M 426.5,281.5 C 431.501,280.671 433.668,282.671 433,287.5C 430.451,291.255 427.784,291.255 425,287.5C 424.591,285.305 425.091,283.305 426.5,281.5 Z M 363.5,282.5 C 363.833,282.5 364.167,282.5 364.5,282.5C 380.527,284.647 396.527,286.98 412.5,289.5C 413.314,293.962 415.314,297.795 418.5,301C 416.542,308.679 414.209,316.179 411.5,323.5C 409.902,324.485 408.235,324.651 406.5,324C 400.93,317.925 394.93,312.425 388.5,307.5C 387.167,305.5 385.5,303.833 383.5,302.5C 378.131,296.13 372.131,290.463 365.5,285.5C 364.833,284.5 364.167,283.5 363.5,282.5 Z M 351.5,290.5 C 353.833,292.5 356.167,294.5 358.5,296.5C 361.808,299.471 365.141,302.471 368.5,305.5C 369.5,307.167 370.833,308.5 372.5,309.5C 376.871,314.873 381.871,319.539 387.5,323.5C 389.962,326.464 392.629,329.297 395.5,332C 394.207,332.49 392.873,332.657 391.5,332.5C 360.025,328.618 328.358,325.118 296.5,322C 293.735,319.034 294.068,316.367 297.5,314C 308.167,306 318.833,298 329.5,290C 333.762,290.574 338.095,291.074 342.5,291.5C 345.533,291.331 348.533,290.998 351.5,290.5 Z M 142.5,298.5 C 150.186,302.15 150.352,305.817 143,309.5C 138.248,308.594 136.748,305.928 138.5,301.5C 139.901,300.479 141.235,299.479 142.5,298.5 Z M 267.5,314.5 C 270.57,314.368 273.57,314.701 276.5,315.5C 284.431,322.241 284.431,329.074 276.5,336C 273.211,337.695 269.878,337.862 266.5,336.5C 260.761,332.621 258.761,327.288 260.5,320.5C 262.858,318.471 265.192,316.471 267.5,314.5 Z M 168.5,316.5 C 190.771,318.876 213.105,322.376 235.5,327C 227.278,328.597 219.111,330.431 211,332.5C 207.564,328.862 203.397,326.362 198.5,325C 192.93,324.429 187.597,325.095 182.5,327C 177.982,323.248 173.316,319.748 168.5,316.5 Z M 381.5,343.5 C 381.167,344.5 380.5,345.167 379.5,345.5C 369.926,348.191 360.426,351.191 351,354.5C 343.278,347.939 334.945,346.939 326,351.5C 317.433,346.465 308.933,341.299 300.5,336C 327.467,338.496 354.467,340.996 381.5,343.5 Z M 418.5,338.5 C 419.551,343.133 417.551,345.466 412.5,345.5C 409.357,341.539 410.024,338.539 414.5,336.5C 416.073,336.752 417.406,337.418 418.5,338.5 Z M 192.5,337.5 C 195.99,337.151 198.323,338.651 199.5,342C 197.644,346.67 194.81,347.503 191,344.5C 190.167,341.829 190.667,339.496 192.5,337.5 Z M 322.5,431.5 C 319.167,434.5 315.833,437.5 312.5,440.5C 311.432,439.566 310.099,439.232 308.5,439.5C 306.202,429.624 303.536,419.958 300.5,410.5C 299.99,407.461 299.323,404.461 298.5,401.5C 296.344,393.876 294.344,386.209 292.5,378.5C 290.526,372.605 288.859,366.605 287.5,360.5C 286.327,356.15 284.994,351.816 283.5,347.5C 285.721,344.366 288.387,343.866 291.5,346C 300.167,351.333 308.833,356.667 317.5,362C 317.239,372.654 322.072,379.821 332,383.5C 333.274,389.478 334.441,395.478 335.5,401.5C 332.124,404.409 329.624,408.076 328,412.5C 327.204,416.755 327.371,420.921 328.5,425C 326.294,427.037 324.294,429.203 322.5,431.5 Z M 334.5,361.5 C 338.192,361.324 340.192,362.991 340.5,366.5C 340.443,367.609 340.11,368.609 339.5,369.5C 337.208,370.686 334.874,370.686 332.5,369.5C 332.322,368.305 331.989,367.138 331.5,366C 332.315,364.357 333.315,362.857 334.5,361.5 Z M 345.5,413.5 C 351.158,417.181 350.824,420.181 344.5,422.5C 342.152,422.152 340.818,420.818 340.5,418.5C 340.537,415.298 342.203,413.632 345.5,413.5 Z M 305.5,451.5 C 310.79,452.767 311.79,455.6 308.5,460C 304.535,461.417 302.201,460.084 301.5,456C 302.357,453.981 303.691,452.481 305.5,451.5 Z"/></g>
<g><path style="opacity:0.396" fill="#6da388" d="M 232.5,49.5 C 234.167,50.5 235.5,51.8333 236.5,53.5C 234.456,52.9688 232.789,51.8022 231.5,50C 231.728,49.6012 232.062,49.4346 232.5,49.5 Z"/></g>
<g><path style="opacity:0.6" fill="#6cb391" d="M 238.5,56.5 C 238.611,57.1174 238.944,57.6174 239.5,58C 241.81,58.4966 244.143,58.6633 246.5,58.5C 244.034,59.6341 241.367,59.8007 238.5,59C 237.226,58.0228 237.226,57.1894 238.5,56.5 Z"/></g>
<g><path style="opacity:0.616" fill="#9bc18d" d="M 288.5,81.5 C 285.051,79.3828 282.718,76.3828 281.5,72.5C 281.81,71.2617 282.31,71.2617 283,72.5C 284.4,75.9024 286.567,78.7357 289.5,81C 289.272,81.3988 288.938,81.5654 288.5,81.5 Z"/></g>
<g><path style="opacity:0.098" fill="#887f93" d="M 335.5,73.5 C 339.949,74.8919 344.282,76.5586 348.5,78.5C 348.44,79.0431 348.107,79.3764 347.5,79.5C 343.129,77.9812 339.129,75.9812 335.5,73.5 Z"/></g>
<g><path style="opacity:0.09" fill="#72bbb0" d="M 231.5,80.5 C 227.369,82.1831 223.036,82.8498 218.5,82.5C 222.454,81.8242 226.454,80.8242 230.5,79.5C 231.107,79.6236 231.44,79.9569 231.5,80.5 Z"/></g>
<g><path style="opacity:0.071" fill="#9f9c6f" d="M 136.5,79.5 C 133.353,81.3129 131.353,83.9796 130.5,87.5C 129.656,83.999 130.989,81.1657 134.5,79C 135.437,78.3083 136.103,78.475 136.5,79.5 Z"/></g>
<g><path style="opacity:0.035" fill="#9e9ea4" d="M 389.5,80.5 C 396.255,82.2495 401.255,86.2495 404.5,92.5C 400.096,87.7637 395.096,83.7637 389.5,80.5 Z"/></g>
<g><path style="opacity:0.769" fill="#93ed66" d="M 347.5,91.5 C 346.209,91.7373 345.209,91.404 344.5,90.5C 344.435,90.0618 344.601,89.7284 345,89.5C 345.995,90.0659 346.828,90.7326 347.5,91.5 Z"/></g>
<g><path style="opacity:0.098" fill="#69a7ac" d="M 355.5,95.5 C 357.491,94.2123 359.158,94.7123 360.5,97C 360.303,98.5787 359.969,98.7454 359.5,97.5C 358.486,96.3263 357.153,95.6596 355.5,95.5 Z"/></g>
<g><path style="opacity:0.745" fill="#809986" d="M 349.5,100.5 C 344.809,102.591 339.809,103.924 334.5,104.5C 339.191,102.409 344.191,101.076 349.5,100.5 Z"/></g>
<g><path style="opacity:0.42" fill="#7ea393" d="M 391.5,96.5 C 392.75,96.5774 393.583,97.244 394,98.5C 395.366,110.638 390.2,115.638 378.5,113.5C 390.937,113.752 395.27,108.085 391.5,96.5 Z"/></g>
<g><path style="opacity:0.267" fill="#a2d38d" d="M 334.5,104.5 C 330.71,106.123 326.71,107.456 322.5,108.5C 321.893,108.376 321.56,108.043 321.5,107.5C 325.702,106.033 330.035,105.033 334.5,104.5 Z"/></g>
<g><path style="opacity:0.294" fill="#90b880" d="M 406.5,105.5 C 406.481,107.06 406.148,108.56 405.5,110C 406.65,111.981 407.984,113.814 409.5,115.5C 404.219,113.422 403.219,110.089 406.5,105.5 Z"/></g>
<g><path style="opacity:0.09" fill="#76b685" d="M 202.5,110.5 C 201.921,113.331 200.588,115.664 198.5,117.5C 199.079,114.669 200.412,112.336 202.5,110.5 Z"/></g>
<g><path style="opacity:0.475" fill="#b2b6bb" d="M 188.5,110.5 C 188.938,110.435 189.272,110.601 189.5,111C 187.49,114.569 185.157,117.736 182.5,120.5C 184.012,116.799 186.012,113.466 188.5,110.5 Z"/></g>
<g><path style="opacity:0.016" fill="#a6aea0" d="M 364.5,117.5 C 367.216,119.613 370.05,121.613 373,123.5C 373.765,125.066 373.598,126.399 372.5,127.5C 371.836,124.287 369.836,122.121 366.5,121C 365.177,120.184 364.511,119.017 364.5,117.5 Z"/></g>
<g><path style="opacity:0.925" fill="#a1d289" d="M 408.5,131.5 C 406.167,129.833 404.167,127.833 402.5,125.5C 402.435,125.062 402.601,124.728 403,124.5C 405.454,126.441 407.287,128.775 408.5,131.5 Z"/></g>
<g><path style="opacity:0.933" fill="#8a9d8b" d="M 446.5,131.5 C 446.565,131.938 446.399,132.272 446,132.5C 440.497,129.019 434.831,128.686 429,131.5C 428.601,131.272 428.435,130.938 428.5,130.5C 430.848,129.048 433.514,128.382 436.5,128.5C 440.294,128.323 443.627,129.323 446.5,131.5 Z"/></g>
<g><path style="opacity:0.016" fill="#a2daaa" d="M 390.5,125.5 C 388.958,126.301 387.292,126.634 385.5,126.5C 385.058,130.154 384.724,133.821 384.5,137.5C 383.595,133.667 383.595,129.667 384.5,125.5C 386.741,125.046 388.741,125.046 390.5,125.5 Z"/></g>
<g><path style="opacity:0.898" fill="#8eb358" d="M 85.5,128.5 C 84.1449,130.929 82.4783,132.262 80.5,132.5C 81.5846,130.413 83.2512,129.08 85.5,128.5 Z"/></g>
<g><path style="opacity:0.043" fill="#8bd8c0" d="M 165.5,125.5 C 166.256,128.394 167.923,130.394 170.5,131.5C 169.458,132.791 168.292,132.791 167,131.5C 166.167,129.833 165.333,128.167 164.5,126.5C 164.624,125.893 164.957,125.56 165.5,125.5 Z"/></g>
<g><path style="opacity:0.878" fill="#a8de8f" d="M 154.5,134.5 C 157.362,137.471 156.695,139.471 152.5,140.5C 154.081,138.858 154.747,136.858 154.5,134.5 Z"/></g>
<g><path style="opacity:0.035" fill="#9cc8aa" d="M 254.5,138.5 C 250.406,140.279 246.073,141.612 241.5,142.5C 241.611,141.883 241.944,141.383 242.5,141C 246.447,139.846 250.447,139.013 254.5,138.5 Z"/></g>
<g><path style="opacity:0.878" fill="#9bcb75" d="M 75.5,136.5 C 75.9382,136.435 76.2716,136.601 76.5,137C 72.9387,140.073 69.272,142.906 65.5,145.5C 68.2109,141.788 71.5442,138.788 75.5,136.5 Z"/></g>
<g><path style="opacity:0.761" fill="#6faea9" d="M 147.5,151.5 C 148.043,151.56 148.376,151.893 148.5,152.5C 146.027,153.797 143.693,153.797 141.5,152.5C 143.735,152.795 145.735,152.461 147.5,151.5 Z"/></g>
<g><path style="opacity:0.976" fill="#aab1b1" d="M 417.5,149.5 C 415.044,151.784 411.711,153.784 407.5,155.5C 406.893,155.376 406.56,155.043 406.5,154.5C 410.043,152.562 413.71,150.895 417.5,149.5 Z"/></g>
<g><path style="opacity:0.604" fill="#84c1be" d="M 285.5,154.5 C 286.152,155.449 286.486,156.615 286.5,158C 286.392,159.681 285.725,160.848 284.5,161.5C 285.369,159.283 285.702,156.95 285.5,154.5 Z"/></g>
<g><path style="opacity:0.796" fill="#8f8b7f" d="M 400.5,157.5 C 398.594,159.587 395.76,161.253 392,162.5C 390.833,161.333 389.667,160.167 388.5,159C 388.728,158.601 389.062,158.435 389.5,158.5C 390.531,159.355 391.697,160.022 393,160.5C 395.465,159.349 397.965,158.349 400.5,157.5 Z"/></g>
<g><path style="opacity:0.976" fill="#949b98" d="M 375.5,166.5 C 382.208,165.87 385.542,169.203 385.5,176.5C 385.333,178.167 385.167,179.833 385,181.5C 384.617,182.056 384.117,182.389 383.5,182.5C 386.616,174.064 383.949,168.73 375.5,166.5 Z"/></g>
<g><path style="opacity:0.984" fill="#97959f" d="M 43.5,171.5 C 45.5806,172.623 47.7473,173.623 50,174.5C 52.2527,173.623 54.4194,172.623 56.5,171.5C 53.2929,175.872 49.2929,176.538 44.5,173.5C 43.7025,173.043 43.3691,172.376 43.5,171.5 Z"/></g>
<g><path style="opacity:0.992" fill="#86b0a9" d="M 189.5,175.5 C 191.438,179.043 193.105,182.71 194.5,186.5C 192.023,183.562 190.023,180.229 188.5,176.5C 188.624,175.893 188.957,175.56 189.5,175.5 Z"/></g>
<g><path style="opacity:0.529" fill="#6ab977" d="M 165.5,177.5 C 164.439,180.622 163.105,183.622 161.5,186.5C 160.957,186.44 160.624,186.107 160.5,185.5C 161.877,181.941 163.543,179.275 165.5,177.5 Z"/></g>
<g><path style="opacity:0.322" fill="#81b8ae" d="M 63.5,182.5 C 59.588,184.454 58.588,187.454 60.5,191.5C 58.9735,190.508 58.3068,189.008 58.5,187C 58.4982,184.175 59.8315,182.341 62.5,181.5C 63.1067,181.624 63.44,181.957 63.5,182.5 Z"/></g>
<g><path style="opacity:0.267" fill="#b5b48b" d="M 81.5,178.5 C 86.543,181.015 91.2096,184.015 95.5,187.5C 95.5654,187.938 95.3988,188.272 95,188.5C 91.5838,186.208 88.0838,184.041 84.5,182C 82.9371,181.241 81.9371,180.074 81.5,178.5 Z"/></g>
<g><path style="opacity:0.992" fill="#6ebcb2" d="M 368.5,184.5 C 370.297,185.73 372.297,186.396 374.5,186.5C 373.399,187.598 372.066,187.765 370.5,187C 369.244,186.583 368.577,185.75 368.5,184.5 Z"/></g>
<g><path style="opacity:0.588" fill="#89bfaa" d="M 147.5,185.5 C 146.873,189.42 145.207,192.753 142.5,195.5C 143.659,191.849 145.326,188.515 147.5,185.5 Z"/></g>
<g><path style="opacity:0.894" fill="#8fb863" d="M 402.5,186.5 C 404.434,187.11 406.101,188.11 407.5,189.5C 407.565,189.938 407.399,190.272 407,190.5C 405.167,189.333 403.333,188.167 401.5,187C 401.728,186.601 402.062,186.435 402.5,186.5 Z"/></g>
<g><path style="opacity:0.204" fill="#86dfac" d="M 355.5,197.5 C 355.833,195.5 356.167,193.5 356.5,191.5C 354.708,191.366 353.042,191.699 351.5,192.5C 352.841,190.88 354.674,189.88 357,189.5C 357.885,192.538 357.385,195.205 355.5,197.5 Z"/></g>
<g><path style="opacity:0.812" fill="#81bf6c" d="M 397.5,198.5 C 397.56,197.957 397.893,197.624 398.5,197.5C 400.419,198.612 402.086,199.946 403.5,201.5C 401.216,201.025 399.216,200.025 397.5,198.5 Z"/></g>
<g><path style="opacity:0.169" fill="#75b381" d="M 201.5,201.5 C 203.071,203.635 204.404,205.968 205.5,208.5C 202.917,207.015 201.584,204.682 201.5,201.5 Z"/></g>
<g><path style="opacity:0.035" fill="#81bfc1" d="M 424.5,200.5 C 427.704,201.383 430.371,203.05 432.5,205.5C 429.296,204.617 426.629,202.95 424.5,200.5 Z"/></g>
<g><path style="opacity:0.765" fill="#73be94" d="M 49.5,204.5 C 51.1623,208.446 51.4956,212.446 50.5,216.5C 49.9791,212.519 49.6458,208.519 49.5,204.5 Z"/></g>
<g><path style="opacity:0.394" fill="#b7dfbd" d="M 367.5,200.5 C 367.435,203.428 366.768,206.095 365.5,208.5C 365.294,205.505 365.96,202.838 367.5,200.5 Z"/></g>
<g><path style="opacity:0.996" fill="#999c95" d="M 302.5,200.5 C 303.768,205.847 302.101,210.347 297.5,214C 296.563,214.692 295.897,214.525 295.5,213.5C 299.964,210.356 302.298,206.022 302.5,200.5 Z"/></g>
<g><path style="opacity:0.588" fill="#9bd6b8" d="M 105.5,208.5 C 107.783,208.608 109.783,209.441 111.5,211C 111.272,211.399 110.938,211.565 110.5,211.5C 108.566,210.89 106.899,209.89 105.5,208.5 Z"/></g>
<g><path style="opacity:0.82" fill="#afaa8b" d="M 137.5,208.5 C 145.086,209.388 148.419,213.388 147.5,220.5C 146.698,214.367 143.365,210.367 137.5,208.5 Z"/></g>
<g><path style="opacity:0.835" fill="#7cb681" d="M 411.5,206.5 C 414.198,206.845 416.198,208.178 417.5,210.5C 415.147,209.66 413.147,208.326 411.5,206.5 Z"/></g>
<g><path style="opacity:0.961" fill="#9aa4a2" d="M 462.5,202.5 C 463.226,205.179 464.059,207.846 465,210.5C 467.415,211.132 469.582,212.132 471.5,213.5C 468.882,213.221 466.382,212.554 464,211.5C 463.167,209 462.333,206.5 461.5,204C 461.57,203.235 461.903,202.735 462.5,202.5 Z"/></g>
<g><path style="opacity:0.98" fill="#6eaba2" d="M 351.5,213.5 C 351.938,213.435 352.272,213.601 352.5,214C 351.383,217.998 350.05,221.832 348.5,225.5C 348.898,221.239 349.898,217.239 351.5,213.5 Z"/></g>
<g><path style="opacity:0.169" fill="#70ab8d" d="M 310.5,216.5 C 309.167,217.833 309.167,219.167 310.5,220.5C 310.565,220.938 310.399,221.272 310,221.5C 306.832,219.501 306.998,217.834 310.5,216.5 Z"/></g>
<g><path style="opacity:0.604" fill="#8aaf89" d="M 471.5,213.5 C 475.236,214.905 477.569,217.571 478.5,221.5C 478.565,221.938 478.399,222.272 478,222.5C 476.389,219.062 474.223,216.062 471.5,213.5 Z"/></g>
<g><path style="opacity:0.388" fill="#97acae" d="M 160.5,218.5 C 160.33,219.822 160.663,220.989 161.5,222C 164.718,222.9 167.718,224.067 170.5,225.5C 167.053,225.186 163.72,224.352 160.5,223C 159.199,221.384 159.199,219.884 160.5,218.5 Z"/></g>
<g><path style="opacity:0.09" fill="#91aea2" d="M 243.5,221.5 C 241.502,223.6 239.335,225.6 237,227.5C 235.581,226.54 234.081,225.707 232.5,225C 231.748,224.329 231.414,223.496 231.5,222.5C 232.973,223.74 234.64,224.74 236.5,225.5C 238.725,223.89 241.059,222.557 243.5,221.5 Z"/></g>
<g><path style="opacity:0.588" fill="#72a8ca" d="M 170.5,225.5 C 172.965,225.767 175.299,226.434 177.5,227.5C 177.44,228.043 177.107,228.376 176.5,228.5C 174.22,227.864 172.22,226.864 170.5,225.5 Z"/></g>
<g><path style="opacity:0.043" fill="#7abba5" d="M 277.5,228.5 C 277.735,227.903 278.235,227.57 279,227.5C 282.985,228.072 286.818,228.739 290.5,229.5C 286.102,229.706 281.768,229.373 277.5,228.5 Z"/></g>
<g><path style="opacity:0.996" fill="#8a9682" d="M 147.5,221.5 C 148.652,225.402 147.318,228.569 143.5,231C 142.563,231.692 141.897,231.525 141.5,230.5C 145.103,228.565 147.103,225.565 147.5,221.5 Z"/></g>
<g><path style="opacity:0.992" fill="#81a4b0" d="M 125.5,220.5 C 126.604,228.596 131.27,232.263 139.5,231.5C 133.043,233.865 128.209,231.865 125,225.5C 124.22,223.613 124.387,221.946 125.5,220.5 Z"/></g>
<g><path style="opacity:0.439" fill="#c0da90" d="M 42.5,230.5 C 43.0431,230.56 43.3764,230.893 43.5,231.5C 42.9106,234.64 42.2439,237.64 41.5,240.5C 41.2529,237.061 41.5863,233.728 42.5,230.5 Z"/></g>
<g><path style="opacity:0.224" fill="#9ccb59" d="M 347.5,227.5 C 348.043,227.56 348.376,227.893 348.5,228.5C 347.942,231.127 346.942,233.46 345.5,235.5C 345.858,232.733 346.525,230.067 347.5,227.5 Z"/></g>
<g><path style="opacity:0.267" fill="#a3c575" d="M 156.5,234.5 C 159.38,233.67 162.046,234.337 164.5,236.5C 161.779,236.037 159.112,235.371 156.5,234.5 Z"/></g>
<g><path style="opacity:0.078" fill="#83b3a3" d="M 221.5,232.5 C 225.257,232.298 228.424,233.965 231,237.5C 231.692,238.437 231.525,239.103 230.5,239.5C 228.383,236.051 225.383,233.718 221.5,232.5 Z"/></g>
<g><path style="opacity:0.843" fill="#a69a5a" d="M 127.5,242.5 C 123.677,241.754 120.677,239.754 118.5,236.5C 118.435,236.062 118.601,235.728 119,235.5C 121.628,238.21 124.461,240.544 127.5,242.5 Z"/></g>
<g><path style="opacity:0.984" fill="#6fa15a" d="M 172.5,239.5 C 172.56,238.957 172.893,238.624 173.5,238.5C 175.78,239.136 177.78,240.136 179.5,241.5C 177.035,241.233 174.701,240.566 172.5,239.5 Z"/></g>
<g><path style="opacity:0.867" fill="#8fc168" d="M 415.5,238.5 C 414.469,239.688 412.635,240.688 410,241.5C 409.601,241.272 409.435,240.938 409.5,240.5C 411.214,239.262 413.214,238.595 415.5,238.5 Z"/></g>
<g><path style="opacity:0.62" fill="#889686" d="M 247.5,233.5 C 246.315,234.857 245.315,236.357 244.5,238C 245.566,241.094 246.232,244.26 246.5,247.5C 247.5,247.5 248.5,247.5 249.5,247.5C 248.432,248.434 247.099,248.768 245.5,248.5C 245.201,244.47 244.201,240.637 242.5,237C 243.789,235.198 245.456,234.031 247.5,233.5 Z"/></g>
<g><path style="opacity:0.498" fill="#9ca298" d="M 232.5,241.5 C 235.167,245.833 235.167,250.167 232.5,254.5C 233.833,250.167 233.833,245.833 232.5,241.5 Z"/></g>
<g><path style="opacity:0.208" fill="#8edda0" d="M 464.5,243.5 C 462.041,243.31 460.374,244.31 459.5,246.5C 459.657,242.727 461.324,241.727 464.5,243.5 Z"/></g>
<g><path style="opacity:0.345" fill="#75cebc" d="M 390.5,247.5 C 389.264,249.043 387.598,250.043 385.5,250.5C 384.893,250.376 384.56,250.043 384.5,249.5C 386.421,248.637 388.421,247.971 390.5,247.5 Z"/></g>
<g><path style="opacity:0.871" fill="#88c571" d="M 83.5,248.5 C 85.7488,249.08 87.4154,250.413 88.5,252.5C 86.2512,251.92 84.5846,250.587 83.5,248.5 Z"/></g>
<g><path style="opacity:0.525" fill="#b1de95" d="M 378.5,251.5 C 377.216,253.614 375.216,254.614 372.5,254.5C 374.25,253.13 376.25,252.13 378.5,251.5 Z"/></g>
<g><path style="opacity:0.667" fill="#93db89" d="M 411.5,253.5 C 409.299,254.566 406.965,255.233 404.5,255.5C 406.22,254.136 408.22,253.136 410.5,252.5C 411.107,252.624 411.44,252.957 411.5,253.5 Z"/></g>
<g><path style="opacity:0.388" fill="#a9aeb1" d="M 443.5,249.5 C 442.502,253.505 440.502,256.839 437.5,259.5C 439,255.827 441,252.494 443.5,249.5 Z"/></g>
<g><path style="opacity:0.188" fill="#69f065" d="M 205.5,259.5 C 206.5,259.833 207.167,260.5 207.5,261.5C 206.761,261.631 206.094,261.464 205.5,261C 204.262,260.31 204.262,259.81 205.5,259.5 Z"/></g>
<g><path style="opacity:0.043" fill="#98a58e" d="M 258.5,262.5 C 258.735,261.903 259.235,261.57 260,261.5C 264.275,262.262 267.775,263.262 270.5,264.5C 266.426,264.218 262.426,263.552 258.5,262.5 Z"/></g>
<g><path style="opacity:0.016" fill="#88c3a1" d="M 289.5,268.5 C 289.735,267.903 290.235,267.57 291,267.5C 293.346,267.99 295.513,268.657 297.5,269.5C 294.763,269.599 292.096,269.265 289.5,268.5 Z"/></g>
<g><path style="opacity:0.91" fill="#87ce75" d="M 183.5,265.5 C 182.432,267.74 180.766,269.574 178.5,271C 177.563,271.692 176.897,271.525 176.5,270.5C 178.657,268.588 180.991,266.921 183.5,265.5 Z"/></g>
<g><path style="opacity:0.435" fill="#99ac6f" d="M 200.5,271.5 C 205.116,273.592 209.783,275.259 214.5,276.5C 209.032,276.791 204.365,275.124 200.5,271.5 Z"/></g>
<g><path style="opacity:0.69" fill="#9ee993" d="M 228.5,275.5 C 225.873,276.092 223.206,276.425 220.5,276.5C 223.089,274.843 225.756,274.509 228.5,275.5 Z"/></g>
<g><path style="opacity:0.925" fill="#b6df9e" d="M 364.5,282.5 C 364.167,282.5 363.833,282.5 363.5,282.5C 364.167,283.5 364.833,284.5 365.5,285.5C 363.078,284.915 361.411,283.415 360.5,281C 362.463,280.156 363.796,280.656 364.5,282.5 Z"/></g>
<g><path style="opacity:0.871" fill="#8aaa79" d="M 112.5,287.5 C 108.793,285.312 105.46,282.645 102.5,279.5C 102.435,279.062 102.601,278.728 103,278.5C 106.528,281.169 109.695,284.169 112.5,287.5 Z"/></g>
<g><path style="opacity:0.792" fill="#8c8d86" d="M 358.5,296.5 C 356.167,294.5 353.833,292.5 351.5,290.5C 351.369,289.761 351.536,289.094 352,288.5C 354.5,291 357,293.5 359.5,296C 359.272,296.399 358.938,296.565 358.5,296.5 Z"/></g>
<g><path style="opacity:0.404" fill="#85907c" d="M 445.5,290.5 C 444.679,295.32 442.012,298.653 437.5,300.5C 440.577,297.431 443.244,294.097 445.5,290.5 Z"/></g>
<g><path style="opacity:0.91" fill="#86db65" d="M 383.5,302.5 C 385.5,303.833 387.167,305.5 388.5,307.5C 385.833,306.833 384.167,305.167 383.5,302.5 Z"/></g>
<g><path style="opacity:0.239" fill="#7ee262" d="M 372.5,309.5 C 370.833,308.5 369.5,307.167 368.5,305.5C 368.435,305.062 368.601,304.728 369,304.5C 370.802,305.789 371.969,307.456 372.5,309.5 Z"/></g>
<g><path style="opacity:0.616" fill="#699b60" d="M 267.5,314.5 C 269.966,313.366 272.633,313.199 275.5,314C 276.056,314.383 276.389,314.883 276.5,315.5C 273.57,314.701 270.57,314.368 267.5,314.5 Z"/></g>
<g><path style="opacity:0.98" fill="#97b791" d="M 387.5,323.5 C 391.57,326.06 395.236,329.227 398.5,333C 395.961,333.796 393.628,333.629 391.5,332.5C 392.873,332.657 394.207,332.49 395.5,332C 392.629,329.297 389.962,326.464 387.5,323.5 Z"/></g>
<g><path style="opacity:0.043" fill="#78ac93" d="M 260.5,320.5 C 258.761,327.288 260.761,332.621 266.5,336.5C 261.206,334.966 258.54,331.3 258.5,325.5C 258.436,323.443 259.102,321.777 260.5,320.5 Z"/></g>
<g><path style="opacity:0.816" fill="#74c2c3" d="M 425.5,326.5 C 428.244,328.984 430.244,331.984 431.5,335.5C 429.116,332.609 426.449,329.776 423.5,327C 424.094,326.536 424.761,326.369 425.5,326.5 Z"/></g>
<g><path style="opacity:0.624" fill="#88c68a" d="M 249.5,337.5 C 245.524,338.295 241.524,338.962 237.5,339.5C 240.718,337.947 244.218,336.947 248,336.5C 249.792,336.481 250.292,336.814 249.5,337.5 Z"/></g>
<g><path style="opacity:0.745" fill="#7bc2b3" d="M 177.5,342.5 C 178.413,344.933 179.413,347.433 180.5,350C 180.272,350.399 179.938,350.565 179.5,350.5C 177.96,348.162 177.294,345.495 177.5,342.5 Z"/></g>
<g><path style="opacity:0.192" fill="#70b18a" d="M 381.5,343.5 C 382.873,343.343 384.207,343.51 385.5,344C 383.833,344.833 382.167,345.667 380.5,346.5C 379.893,346.376 379.56,346.043 379.5,345.5C 380.5,345.167 381.167,344.5 381.5,343.5 Z"/></g>
<g><path style="opacity:0.851" fill="#9cab82" d="M 418.5,338.5 C 420.942,340.139 421.109,342.139 419,344.5C 416.984,346.608 414.817,346.942 412.5,345.5C 417.551,345.466 419.551,343.133 418.5,338.5 Z"/></g>
<g><path style="opacity:0.055" fill="#87aa7e" d="M 211.5,345.5 C 211.023,349.793 209.023,353.127 205.5,355.5C 207.503,352.159 209.503,348.825 211.5,345.5 Z"/></g>
<g><path style="opacity:0.541" fill="#b6e595" d="M 387.5,356.5 C 385.007,357.774 382.341,358.44 379.5,358.5C 381.65,357.33 383.984,356.33 386.5,355.5C 387.107,355.624 387.44,355.957 387.5,356.5 Z"/></g>
<g><path style="opacity:0.188" fill="#8aff7f" d="M 200.5,358.5 C 199.292,359.234 197.959,359.567 196.5,359.5C 197.705,357.862 199.038,357.529 200.5,358.5 Z"/></g>
<g><path style="opacity:0.157" fill="#97e887" d="M 334.5,361.5 C 333.315,362.857 332.315,364.357 331.5,366C 331.989,367.138 332.322,368.305 332.5,369.5C 330.559,367.989 330.059,365.989 331,363.5C 331.816,362.177 332.983,361.511 334.5,361.5 Z"/></g>
<g><path style="opacity:0.541" fill="#b6e595" d="M 362.5,364.5 C 360.007,365.774 357.341,366.44 354.5,366.5C 356.65,365.33 358.984,364.33 361.5,363.5C 362.107,363.624 362.44,363.957 362.5,364.5 Z"/></g>
<g><path style="opacity:0.282" fill="#9bb987" d="M 287.5,360.5 C 288.859,366.605 290.526,372.605 292.5,378.5C 290.603,376.731 289.436,374.398 289,371.5C 288.245,368.312 287.411,365.145 286.5,362C 286.57,361.235 286.903,360.735 287.5,360.5 Z"/></g>
<g><path style="opacity:0.988" fill="#94f870" d="M 340.5,366.5 C 341.885,367.947 341.552,368.947 339.5,369.5C 340.11,368.609 340.443,367.609 340.5,366.5 Z"/></g>
<g><path style="opacity:0.047" fill="#7ec996" d="M 351.5,373.5 C 351.155,376.198 349.822,378.198 347.5,379.5C 347.062,379.565 346.728,379.399 346.5,379C 348.3,377.188 349.967,375.355 351.5,373.5 Z"/></g>
<g><path style="opacity:0.82" fill="#85c5b6" d="M 298.5,401.5 C 299.323,404.461 299.99,407.461 300.5,410.5C 298.982,408.319 297.982,405.819 297.5,403C 297.57,402.235 297.903,401.735 298.5,401.5 Z"/></g>
<g><path style="opacity:0.62" fill="#81c3a1" d="M 345.5,413.5 C 342.203,413.632 340.537,415.298 340.5,418.5C 338.719,415.107 339.886,413.107 344,412.5C 344.765,412.57 345.265,412.903 345.5,413.5 Z"/></g>
<g><path style="opacity:0.906" fill="#9d7cbe" d="M 322.5,431.5 C 320.443,435.067 317.777,438.234 314.5,441C 313.563,441.692 312.897,441.525 312.5,440.5C 315.833,437.5 319.167,434.5 322.5,431.5 Z"/></g>
<g><path style="opacity:0.071" fill="#77504c" d="M 339.5,434.5 C 333.556,439.106 327.89,444.106 322.5,449.5C 326.265,444.197 330.932,439.031 336.5,434C 337.749,433.26 338.749,433.427 339.5,434.5 Z"/></g>
<g><path style="opacity:0.078" fill="#95cdc9" d="M 298.5,471.5 C 301.689,471.858 304.689,472.525 307.5,473.5C 304.123,473.932 301.123,473.265 298.5,471.5 Z"/></g>
</svg>
